<svg fill="none" height="56" viewBox="0 0 264 56" width="264" xmlns="http://www.w3.org/2000/svg"><g fill="#fff"><path d="m1.58 55.33c-1 0-1.58-.57-1.58-1.22 0-1.51 3.1-3.17 3.1-6.05v-39.81996c0-2.88-3.1-4.53001-3.1-6.05001 0-.64.58-1.219998 1.58-1.219998h21.82c5.33 0 7.85 2.520008 7.85 6.910008v10.99996c0 2.59-2.38 4.32-3.82 5.54 1.95 1.37 5.69 3.46 5.69 6.34v19c0 3.67-3.17 5.54-6.84 5.54zm11.17-46.43997v15.33997l7.63-4.75c.3321-.2009.6144-.4744.8257-.8s.3461-.6948.3943-1.08v-7.76997c0-.8-.14-.94-1-.94zm9.72 38.51997c.72 0 1-.28 1-1v-12.25c0-1-4.46-4.24-4.46-4.24l-5.47 3.67c-.58.43-.79.72-.79 1.22v12.6z"/><path d="m72.1499 54.11c-.0543.3569-.2407.6803-.5222.9063-.2815.2259-.6376.3379-.9978.3137h-12.45c-1 0-1.66-.57-1.66-1.22 0-1.08 1.66-1.3 1.66-2.88 0-.79-5-13.68-5-13.68l-2.67 1.66c-.21.14-.29.35-.29.79v8.06c0 2.88 3.1 4.54 3.1 6.05 0 .65-.58 1.22-1.58 1.22h-12.74c-1 0-1.58-.57-1.58-1.22 0-1.51 3.1-3.17 3.1-6.05v-39.81996c0-2.88-3.1-4.53001-3.1-6.05001 0-.64.58-1.219998 1.58-1.219998l21.82-.070008c4.83 0 7.85 2.160006 7.85 6.910006v16.91997c0 3.1-3.24 5-6.55 7.06 3 8.5 6 16.13 6.48 17.06 2.18 3.82 3.55 3.68 3.55 5.26zm-22-45.21997v20.22997l7.13-4.89c1.59-1.08 1.73-1.66 1.73-2.16v-12.23997c0-.65-.29-.94-1-.94z"/><path d="m75.89 55.33c-1 0-1.59-.57-1.59-1.22 0-1.51 3.1-3.17 3.1-6.05v-39.81996c0-2.88-3.1-4.53001-3.1-6.05001 0-.64.58-1.219998 1.59-1.219998h25.2c1.73 0 2.45.719998 2.45 2.449998v8.20997c0 1.08-.22 1.44-.79 1.87-1.16.86-6.77 4.68-7.64 4.68-.3385-.0327-.6522-.1919-.8784-.4459s-.3482-.584-.3416-.9241v-7.91997h-5.89c-.2343.00164-.4595.09074-.6316.24983-.172.15909-.2784.3767-.2984.61017v17.64997l6.41-4c.5419-.4136 1.1908-.6634 1.87-.72.1915.0049.3799.0486.5538.1287.1739.08.3298.1946.4579.3369.1282.1422.2261.309.2877.4903s.0856.3733.0706.5641v6.62c.0609.5009-.0391 1.0081-.2853 1.4485-.2463.4404-.6261.7911-1.0847 1.0015l-8.28 5.25v8.07c.0039.1178.0311.2336.0801.3408.0489.1072.1187.2036.2052.2836s.1881.142.2988.1825c.1106.0404.2282.0585.3459.0531h5.91v-4.53c0-1.08.21-1.44.79-1.88 1.15-.86 6.77-4.68 7.63-4.68.34.0303.657.1886.885.4428.228.2543.351.5856.345.9272v15.2c0 1.72-.72 2.44-2.45 2.44z"/><path d="m147.82 33.23s5.11-24.40997 5.11-25.70997c0-2-2.3-3.81-2.3-5.33 0-.64.57-1.219998 1.58-1.219998h12.67c1 0 1.59.579998 1.59 1.219998 0 1.52-2.88 3.53-3.46 6.12l-8.86 40.61997c-.28 1.36 2 3.81 2 5.18 0 .65-.58 1.22-1.58 1.22h-11.79c-1 0-1.59-.57-1.59-1.22 0-1.37 1.95-3.82 1.95-5.18l-6.7-24.63-6.7 24.63c0 1.36 1.95 3.81 1.95 5.18 0 .65-.58 1.22-1.59 1.22h-11.81c-1 0-1.58-.57-1.58-1.22 0-1.37 1.94-3.82 2-5.18l-8.86-40.61997c-.58-2.59-3.46-4.6-3.46-6.12 0-.64.58-1.219998 1.59-1.219998h12.67c1 0 1.59.579998 1.59 1.219998 0 1.52-2.31 3.32-2.31 5.33 0 1.3 5.11 25.70997 5.11 25.70997l6.2-25.84996c.28-1.3-1.95-3.82001-1.95-5.19001 0-.64.58-1.219998 1.59-1.219998h11.12c1 0 1.59.579998 1.59 1.219998 0 1.37-2.3 3.89001-2 5.19001z"/><path d="m214.85 49.5c0 2.74-2.74 5.83-7.13 5.83h-13.47c-3.88 0-6.84-1.94-6.84-5.54v-43.27997c0-3.6 3-5.539998 6.84-5.539998h12.75c4.25 0 7.13 2.949998 7.13 5.899998v6.91997c0 1.08-.22 1.44-.79 1.87-1.16.86-6.77 4.68-7.64 4.68-.339-.0327-.652-.1919-.879-.4459-.226-.254-.348-.584-.341-.9241v-9.13997c-.014-.24464-.118-.47552-.291-.6488-.174-.17329-.404-.27691-.649-.2912h-5.54c-.245.01429-.476.11791-.649.2912-.173.17328-.277.40416-.291.6488v36.64997c.017.2429.121.4713.294.6426.173.1712.403.2734.646.2874h6.26c.243-.014.473-.1162.646-.2874.173-.1713.277-.3997.294-.6426v-6c0-1.08.22-1.44.79-1.87 1.15-.87 6.77-4.68 7.63-4.68.341.028.659.1856.887.4403.229.2548.352.5875.343.9297z"/><path d="m219.88 49.5v-42.69997c0-3.81 3-5.829998 6.85-5.829998h14.18c4.32 0 7.13 2.999998 7.13 6.189998v41.99997c0 2.95-2.74 6.19-7.13 6.19h-14.18c-3.89-.02-6.85-2.1-6.85-5.85zm10.12-2.09h7.85c.129-.0093.251-.0649.343-.1567.092-.0919.148-.2137.157-.3433v-37.51997c0-.13261-.053-.25978-.147-.35355-.093-.09376-.221-.14645-.353-.14645h-7.85c-.067-.00133-.133.01063-.195.03516-.061.02453-.118.06115-.165.10771-.048.04656-.085.10213-.111.16345s-.039.12717-.039.19368v37.51997c.009.1312.067.2543.16.3464.094.092.219.1467.35.1536z"/><path d="m252.57 46.77c0-1.3.51-1.8 1.73-1.8h7.2c1.23 0 1.8.5 1.8 1.8v6.84c0 1.29-.57 1.8-1.8 1.8h-7.13c-1.22 0-1.8-.51-1.8-1.8z"/></g></svg>