<svg width="264" height="297" viewBox="0 0 264 297" fill="none" xmlns="http://www.w3.org/2000/svg">
<path d="M190 144C193.69 152.4 191 159.12 183 162.06C172.72 165.87 163.57 163.33 155.22 156.8C154.33 156.11 153.53 155.32 152.6 154.51C154.67 163.21 162.29 167.41 180.01 169.51C180.93 184.03 181.01 198.31 170.61 210.42C174.06 199.04 172.43 188.42 166.53 178.2C169.46 195.48 166.02 210.34 151.11 220.88C152.16 214.41 153.57 207.98 154.11 201.48C154.612 194.927 153.224 188.368 150.11 182.58C149.7 189.05 149.74 195.29 148.82 201.38C147.337 211.807 141.982 221.293 133.82 227.95C131.82 229.59 130.69 229.6 128.82 227.95C118.01 218.69 113.38 206.65 112.82 192.77C112.69 189.34 112.82 185.91 112.82 181.94C106.5 195.07 107.88 207.89 112.7 221.61C96.62 210.05 93.13 195.07 96.7 177.36C90.7 185.76 89.36 196.19 92.3 209.98C84.82 205.36 79.87 183.42 83.3 169.21C91.54 169.32 99.5 168.07 104.81 162C99.6 162.59 93.81 163.9 88.13 163.66C84.53 163.51 80.64 161.61 77.56 159.51C72.45 156.02 71.62 150.42 74.31 144.79C76.55 145.65 78.75 147.1 80.99 147.16C83.363 147.1 85.6669 146.349 87.62 145C91.68 142.29 92.81 136.65 90.92 131C89.07 125.54 85.07 121.86 80.1 119.55C73.87 116.67 67.36 114.38 60.93 111.94C51.2035 108.449 42.3209 102.95 34.86 95.8L43.17 92.11C26.59 85.65 17.56 74 15.48 57.44C22.77 57.69 29.76 58.75 36.55 57.98C49.27 56.55 58.3 49.0001 64.7 38.2001C72 25.8401 81 15 93.38 7.40005C99.48 3.63005 106 0.800049 113.25 0.100049C113.87 3.22005 114.25 6.19005 115.06 9.10005C117.16 16.6 122.24 21.3 129.55 23.55C131.109 23.9437 132.75 23.8742 134.27 23.35C142.82 20.5401 147.67 14.52 149.08 5.67005C149.35 3.96005 149.61 2.26005 149.96 0.0500488C165.16 7.23005 174.82 18.31 178.6 35.05L182.07 25.92C197.53 50.1101 217.07 64.9201 247.82 56.4901C245.82 74.0201 236.67 85.66 220.1 92.19L226.21 95.45C224.56 97.38 223.21 99.26 221.54 100.88C214.19 108 205 111.84 195.43 115.1C190.129 116.942 185.067 119.41 180.35 122.45C177.994 123.92 176.073 125.993 174.788 128.454C173.503 130.916 172.899 133.677 173.04 136.45C173.13 140.97 175.04 144.5 179.26 146.36C183.12 148.14 186.86 148 190 144V144ZM105.55 13.24C101.1 16.01 96.73 18.24 92.94 21.24C89.2126 24.3835 85.7044 27.7781 82.44 31.4C78.83 35.15 77.44 39.9401 76.33 44.9001C75.33 49.4801 74 53.99 72.82 58.53L72.26 58.39L71.1 50.5201L70.1 50.21L58.36 66.8L56.28 64.28L34.6 68.46L54.81 77.53L48.14 79.07C55.71 80.6 63.26 81.69 70.84 82.47C73.29 82.72 74.09 83.58 73.95 85.94C73.79 88.6 73.95 91.27 73.95 93.94C75.2318 92.6232 76.3012 91.1152 77.12 89.47C79.93 84.94 82.12 79.68 85.83 76.12C95 67.44 106.62 64 119 62.92C119.967 62.6633 120.885 62.2513 121.72 61.7001C120.82 61.1101 119.91 60.0201 119 60.0201C113.872 59.8428 108.738 59.9964 103.63 60.48C97.19 61.29 90.83 62.82 83.63 64.2C95.2462 57.9924 108.19 54.6819 121.36 54.55C123.13 49.08 118.76 46.55 116.69 42.78L81.87 59L81.58 58.48L114.72 36.1101L114.3 35.1101H102.73V34.5801L121.22 30.0201C113.49 26.3101 108.83 20.8 105.55 13.24V13.24ZM125.64 119.32C128.98 120.8 131.99 123.26 135.84 120.32C136.84 119.51 138.7 119.47 140.18 119.41C148.39 119.09 153.59 124.1 158.29 129.88C159.81 131.76 161.17 133.78 162.6 135.73C162.846 134.956 162.781 134.117 162.42 133.39C160.67 130.28 160.72 127.8 163.89 125.39C165.66 124.04 166.67 121.68 168.13 119.64L160.91 114.36C169.48 115.42 180.14 102.86 178.2 94.48C174.39 94.69 170.51 94.83 166.66 95.18C166.207 95.2348 165.771 95.3875 165.382 95.6275C164.994 95.8675 164.662 96.1891 164.41 96.57C163.03 99.57 161.89 102.67 160.63 105.82L167.51 108.95H144.56C144.42 110.57 144.33 111.61 144.3 112.01C142.257 110.229 140.311 108.34 138.47 106.35C136.74 104.29 134.54 102.05 134.1 99.61C133.38 95.61 133.91 91.3 133.91 86.17L116.3 79L118.81 78C118.81 77.52 118.81 77 118.81 76.57C116.55 76.39 114 75.44 112.09 76.17C105.218 78.7852 98.5001 81.7901 91.97 85.17C89.91 86.24 88.27 88.89 87.32 91.17C85.16 96.37 86.39 101.44 89.95 105.57C93.51 109.7 96.62 115.4 104.22 114.33L96.98 119.55C101.57 123.9 104.08 128.55 101.54 134.63C102.665 133.511 103.67 132.277 104.54 130.95C107.96 126.15 112.02 121.74 117.82 120.42C122.14 119.42 123.38 116.94 124.12 113.42C124.91 109.67 126.12 105.87 123.05 102.42L117 105.17L118.53 102.17C112.78 100.04 105.99 101.89 101.35 96.4C106.35 91.72 111.43 92.61 116.77 95.07C112.34 90.49 107.91 86.33 100.54 87.59C106.33 83.37 111.59 83.59 118.04 87.77C130.36 95.84 129.19 107.22 125.64 119.32V119.32ZM136.89 80L138 78.84C140.88 82.09 143.18 86.67 146.78 88.21C150.21 89.68 154.99 87.97 159.06 87.66L154.38 90.36C161.59 92.69 173.49 93.03 177.68 91.14C172.25 79.66 136.68 69.65 119.45 75.3L138.26 85.82L138.82 85.1C138.18 83.4 137.537 81.7 136.89 80V80ZM148.28 158.27L148.76 157.98C146.17 151.11 143.65 144.21 140.94 137.39C140.391 136.205 139.481 135.225 138.34 134.59C136.08 133.3 133.6 132.39 131.27 131.2C126.56 128.79 123.99 129.78 122.1 134.92C122.47 135.21 122.83 135.71 123.26 135.78C128.8 136.64 129.58 140.51 129.62 145.19C129.806 148.032 130.18 150.858 130.74 153.65L131.39 153.55C131.81 148.33 132.23 143.11 132.66 137.74L137.5 136.57C141.19 144 144.74 151.15 148.28 158.29V158.27ZM136.28 93.2C135.79 97.66 136.96 101.49 140.8 104.46L136.28 93.2Z" fill="white"/>
<path d="M1.58 296.33C0.58 296.33 0 295.76 0 295.11C0 293.6 3.1 291.94 3.1 289.06V249.24C3.1 246.36 0 244.71 0 243.19C0 242.55 0.58 241.97 1.58 241.97H23.4C28.73 241.97 31.25 244.49 31.25 248.88V259.88C31.25 262.47 28.87 264.2 27.43 265.42C29.38 266.79 33.12 268.88 33.12 271.76V290.76C33.12 294.43 29.95 296.3 26.28 296.3L1.58 296.33ZM12.75 249.89V265.23L20.38 260.48C20.7121 260.279 20.9944 260.006 21.2057 259.68C21.417 259.354 21.5518 258.985 21.6 258.6V250.83C21.6 250.03 21.46 249.89 20.6 249.89H12.75ZM22.47 288.41C23.19 288.41 23.47 288.13 23.47 287.41V275.16C23.47 274.16 19.01 270.92 19.01 270.92L13.54 274.59C12.96 275.02 12.75 275.31 12.75 275.81V288.41H22.47Z" fill="white"/>
<path d="M72.15 295.11C72.0956 295.467 71.9093 295.79 71.6278 296.016C71.3462 296.242 70.9901 296.354 70.63 296.33H58.18C57.18 296.33 56.52 295.76 56.52 295.11C56.52 294.03 58.18 293.81 58.18 292.23C58.18 291.44 53.18 278.55 53.18 278.55L50.51 280.21C50.3 280.35 50.22 280.56 50.22 281V289.06C50.22 291.94 53.32 293.6 53.32 295.11C53.32 295.76 52.74 296.33 51.74 296.33H39C38 296.33 37.42 295.76 37.42 295.11C37.42 293.6 40.52 291.94 40.52 289.06V249.24C40.52 246.36 37.42 244.71 37.42 243.19C37.42 242.55 38 241.97 39 241.97L60.82 241.9C65.65 241.9 68.67 244.06 68.67 248.81V265.73C68.67 268.83 65.43 270.73 62.12 272.79C65.12 281.29 68.12 288.92 68.6 289.85C70.78 293.67 72.15 293.53 72.15 295.11V295.11ZM50.15 249.89V270.12L57.28 265.23C58.87 264.15 59.01 263.57 59.01 263.07V250.83C59.01 250.18 58.72 249.89 58.01 249.89H50.15Z" fill="white"/>
<path d="M75.89 296.33C74.89 296.33 74.3 295.76 74.3 295.11C74.3 293.6 77.4 291.94 77.4 289.06V249.24C77.4 246.36 74.3 244.71 74.3 243.19C74.3 242.55 74.88 241.97 75.89 241.97H101.09C102.82 241.97 103.54 242.69 103.54 244.42V252.63C103.54 253.71 103.32 254.07 102.75 254.5C101.59 255.36 95.98 259.18 95.11 259.18C94.7714 259.147 94.4577 258.988 94.2315 258.734C94.0054 258.48 93.8834 258.15 93.89 257.81V249.89H88C87.7657 249.892 87.5404 249.981 87.3684 250.14C87.1963 250.299 87.0899 250.516 87.07 250.75V268.4L93.48 264.4C94.0218 263.986 94.6707 263.737 95.35 263.68C95.5414 263.685 95.7298 263.729 95.9037 263.809C96.0777 263.889 96.2335 264.003 96.3617 264.146C96.4899 264.288 96.5877 264.455 96.6493 264.636C96.7109 264.817 96.735 265.009 96.72 265.2V271.82C96.7808 272.321 96.6809 272.828 96.4346 273.268C96.1884 273.709 95.8085 274.06 95.35 274.27L87.07 279.52V287.59C87.0738 287.708 87.101 287.824 87.15 287.931C87.199 288.038 87.2687 288.134 87.3553 288.214C87.4418 288.294 87.5433 288.356 87.654 288.397C87.7647 288.437 87.8823 288.455 88 288.45H93.91V283.92C93.91 282.84 94.12 282.48 94.7 282.04C95.85 281.18 101.47 277.36 102.33 277.36C102.67 277.39 102.986 277.549 103.215 277.803C103.443 278.057 103.566 278.388 103.56 278.73V293.93C103.56 295.65 102.84 296.37 101.11 296.37L75.89 296.33Z" fill="white"/>
<path d="M147.82 274.23C147.82 274.23 152.93 249.82 152.93 248.52C152.93 246.52 150.63 244.71 150.63 243.19C150.63 242.55 151.2 241.97 152.21 241.97H164.88C165.88 241.97 166.47 242.55 166.47 243.19C166.47 244.71 163.59 246.72 163.01 249.31L154.15 289.93C153.87 291.29 156.15 293.74 156.15 295.11C156.15 295.76 155.57 296.33 154.57 296.33H142.78C141.78 296.33 141.19 295.76 141.19 295.11C141.19 293.74 143.14 291.29 143.14 289.93L136.44 265.3L129.74 289.93C129.74 291.29 131.69 293.74 131.69 295.11C131.69 295.76 131.11 296.33 130.1 296.33H118.29C117.29 296.33 116.71 295.76 116.71 295.11C116.71 293.74 118.65 291.29 118.71 289.93L109.85 249.31C109.27 246.72 106.39 244.71 106.39 243.19C106.39 242.55 106.97 241.97 107.98 241.97H120.65C121.65 241.97 122.24 242.55 122.24 243.19C122.24 244.71 119.93 246.51 119.93 248.52C119.93 249.82 125.04 274.23 125.04 274.23L131.24 248.38C131.52 247.08 129.29 244.56 129.29 243.19C129.29 242.55 129.87 241.97 130.88 241.97H142C143 241.97 143.59 242.55 143.59 243.19C143.59 244.56 141.29 247.08 141.59 248.38L147.82 274.23Z" fill="white"/>
<path d="M214.85 290.5C214.85 293.24 212.11 296.33 207.72 296.33H194.25C190.37 296.33 187.41 294.39 187.41 290.79V247.51C187.41 243.91 190.41 241.97 194.25 241.97H207C211.25 241.97 214.13 244.92 214.13 247.87V254.79C214.13 255.87 213.91 256.23 213.34 256.66C212.18 257.52 206.57 261.34 205.7 261.34C205.361 261.307 205.048 261.148 204.822 260.894C204.595 260.64 204.473 260.31 204.48 259.97V250.83C204.466 250.585 204.362 250.354 204.189 250.181C204.016 250.008 203.785 249.904 203.54 249.89H198C197.755 249.904 197.525 250.008 197.351 250.181C197.178 250.354 197.074 250.585 197.06 250.83V287.48C197.077 287.723 197.181 287.951 197.354 288.122C197.527 288.294 197.757 288.396 198 288.41H204.26C204.503 288.396 204.733 288.294 204.906 288.122C205.079 287.951 205.183 287.723 205.2 287.48V281.48C205.2 280.4 205.42 280.04 205.99 279.61C207.14 278.74 212.76 274.93 213.62 274.93C213.961 274.958 214.279 275.116 214.508 275.37C214.736 275.625 214.859 275.958 214.85 276.3V290.5Z" fill="white"/>
<path d="M219.88 290.5V247.8C219.88 243.99 222.88 241.97 226.73 241.97H240.91C245.23 241.97 248.04 244.97 248.04 248.16V290.16C248.04 293.11 245.3 296.35 240.91 296.35H226.73C222.84 296.33 219.88 294.25 219.88 290.5V290.5ZM230 288.41H237.85C237.98 288.401 238.101 288.345 238.193 288.253C238.285 288.161 238.341 288.04 238.35 287.91V250.39C238.35 250.257 238.297 250.13 238.204 250.036C238.11 249.943 237.983 249.89 237.85 249.89H230C229.934 249.889 229.867 249.901 229.806 249.925C229.744 249.95 229.687 249.986 229.64 250.033C229.592 250.079 229.555 250.135 229.529 250.196C229.503 250.258 229.49 250.323 229.49 250.39V287.91C229.5 288.041 229.557 288.164 229.651 288.256C229.744 288.348 229.869 288.403 230 288.41V288.41Z" fill="white"/>
<path d="M252.57 287.77C252.57 286.47 253.08 285.97 254.3 285.97H261.5C262.73 285.97 263.3 286.47 263.3 287.77V294.61C263.3 295.9 262.73 296.41 261.5 296.41H254.37C253.15 296.41 252.57 295.9 252.57 294.61V287.77Z" fill="white"/>
</svg>
