<svg viewBox="0 0 263.3 296.41" xmlns="http://www.w3.org/2000/svg"><path d="m190 144c3.69 8.4 1 15.12-7 18.06-10.28 3.81-19.43 1.27-27.78-5.26-.89-.69-1.69-1.48-2.62-2.29 2.07 8.7 9.69 12.9 27.41 15 .92 14.52 1 28.8-9.4 40.91 3.45-11.38 1.82-22-4.08-32.22 2.93 17.28-.51 32.14-15.42 42.68 1.05-6.47 2.46-12.9 3-19.4a34.35 34.35 0 0 0 -4-18.9c-.41 6.47-.37 12.71-1.29 18.8a41.9 41.9 0 0 1 -15 26.57c-2 1.64-3.13 1.65-5 0-10.81-9.26-15.44-21.3-16-35.18-.13-3.43 0-6.86 0-10.83-6.32 13.13-4.94 25.95-.12 39.67-16.08-11.56-19.57-26.54-16-44.25-6 8.4-7.34 18.83-4.4 32.62-7.48-4.62-12.43-26.56-9-40.77 8.24.11 16.2-1.14 21.51-7.21-5.21.59-11 1.9-16.68 1.66-3.6-.15-7.49-2.05-10.57-4.15-5.11-3.49-5.94-9.09-3.25-14.72 2.24.86 4.44 2.31 6.68 2.37a12.21 12.21 0 0 0 6.63-2.16c4.06-2.71 5.19-8.35 3.3-14-1.85-5.46-5.85-9.14-10.82-11.45-6.23-2.88-12.74-5.17-19.17-7.61a73.62 73.62 0 0 1 -26.07-16.14l8.31-3.69c-16.58-6.46-25.61-18.11-27.69-34.67 7.29.25 14.28 1.31 21.07.54 12.72-1.43 21.75-8.98 28.15-19.78 7.3-12.36 16.3-23.2 28.68-30.8 6.1-3.77 12.62-6.6 19.87-7.3.62 3.12 1 6.09 1.81 9 2.1 7.5 7.18 12.2 14.49 14.45a8.27 8.27 0 0 0 4.72-.2c8.55-2.81 13.4-8.83 14.81-17.68.27-1.71.53-3.41.88-5.62 15.2 7.18 24.86 18.26 28.64 35l3.47-9.13c15.46 24.19 35 39 65.75 30.57-2 17.53-11.15 29.17-27.72 35.7l6.11 3.26c-1.65 1.93-3 3.81-4.67 5.43-7.35 7.12-16.54 10.96-26.11 14.22a70.62 70.62 0 0 0 -15.08 7.35 15.57 15.57 0 0 0 -7.31 14c.09 4.52 2 8.05 6.22 9.91 3.86 1.78 7.6 1.64 10.74-2.36zm-84.45-130.76c-4.45 2.77-8.82 5-12.61 8a107 107 0 0 0 -10.5 10.16c-3.61 3.75-5 8.54-6.11 13.5-1 4.58-2.33 9.09-3.51 13.63l-.56-.14-1.16-7.87-1-.31-11.74 16.59-2.08-2.52-21.68 4.18 20.21 9.07-6.67 1.54c7.57 1.53 15.12 2.62 22.7 3.4 2.45.25 3.25 1.11 3.11 3.47-.16 2.66 0 5.33 0 8a17.74 17.74 0 0 0 3.17-4.47c2.81-4.53 5-9.79 8.71-13.35 9.17-8.68 20.79-12.12 33.17-13.2a9.24 9.24 0 0 0 2.72-1.22c-.9-.59-1.81-1.68-2.72-1.68a119.33 119.33 0 0 0 -15.37.46c-6.44.81-12.8 2.34-20 3.72a81.79 81.79 0 0 1 37.73-9.65c1.77-5.47-2.6-8-4.67-11.77l-34.82 16.22-.29-.52 33.14-22.37-.42-1h-11.57v-.53l18.49-4.56c-7.73-3.71-12.39-9.22-15.67-16.78zm20.09 106.08c3.34 1.48 6.35 3.94 10.2 1 1-.81 2.86-.85 4.34-.91 8.21-.32 13.41 4.69 18.11 10.47 1.52 1.88 2.88 3.9 4.31 5.85a3.13 3.13 0 0 0 -.18-2.34c-1.75-3.11-1.7-5.59 1.47-8 1.77-1.35 2.78-3.71 4.24-5.75l-7.22-5.28c8.57 1.06 19.23-11.5 17.29-19.88-3.81.21-7.69.35-11.54.7a3.15 3.15 0 0 0 -2.25 1.39c-1.38 3-2.52 6.1-3.78 9.25l6.88 3.13h-22.95c-.14 1.62-.23 2.66-.26 3.06a75.73 75.73 0 0 1 -5.83-5.66c-1.73-2.06-3.93-4.3-4.37-6.74-.72-4-.19-8.31-.19-13.44l-17.61-7.17 2.51-1c0-.48 0-1 0-1.43-2.26-.18-4.81-1.13-6.72-.4a193.43 193.43 0 0 0 -20.12 9c-2.06 1.07-3.7 3.72-4.65 6-2.16 5.2-.93 10.27 2.63 14.4s6.67 9.83 14.27 8.76l-7.24 5.22c4.59 4.35 7.1 9 4.56 15.08a22.91 22.91 0 0 0 3-3.68c3.42-4.8 7.48-9.21 13.28-10.53 4.32-1 5.56-3.48 6.3-7 .79-3.75 2-7.55-1.07-11l-6.05 2.75 1.53-3c-5.75-2.13-12.54-.28-17.18-5.77 5-4.68 10.08-3.79 15.42-1.33-4.43-4.58-8.86-8.74-16.23-7.48 5.79-4.22 11.05-4 17.5.18 12.32 8.07 11.15 19.45 7.6 31.55zm11.25-39.32 1.11-1.16c2.88 3.25 5.18 7.83 8.78 9.37 3.43 1.47 8.21-.24 12.28-.55l-4.68 2.7c7.21 2.33 19.11 2.67 23.3.78-5.43-11.48-41-21.49-58.23-15.84l18.81 10.52.56-.72q-.96-2.55-1.93-5.1zm11.39 78.27.48-.29c-2.59-6.87-5.11-13.77-7.82-20.59a6.17 6.17 0 0 0 -2.6-2.8c-2.26-1.29-4.74-2.2-7.07-3.39-4.71-2.41-7.28-1.42-9.17 3.72.37.29.73.79 1.16.86 5.54.86 6.32 4.73 6.36 9.41a64.29 64.29 0 0 0 1.12 8.46l.65-.1c.42-5.22.84-10.44 1.27-15.81l4.84-1.17c3.69 7.43 7.24 14.58 10.78 21.72zm-12-65.07c-.49 4.46.68 8.29 4.52 11.26z"/><path d="m125.64 119.32c3.55-12.1 4.72-23.48-7.65-31.54-6.45-4.2-11.71-4.4-17.5-.18 7.37-1.26 11.8 2.9 16.23 7.48-5.34-2.46-10.47-3.35-15.42 1.33 4.64 5.49 11.43 3.64 17.18 5.77l-1.53 3 6.06-2.71c3 3.44 1.86 7.24 1.07 11-.74 3.55-2 6-6.3 7-5.8 1.32-9.86 5.73-13.28 10.53a22.91 22.91 0 0 1 -3 3.68c2.54-6.13 0-10.73-4.56-15.08l7.24-5.22c-7.6 1.07-10.63-4.52-14.27-8.76s-4.79-9.2-2.63-14.4c1-2.3 2.59-5 4.65-6a193.43 193.43 0 0 1 20.12-9c1.91-.73 4.46.22 6.72.4v1.43l-2.51 1 17.61 7.09c0 5.13-.53 9.4.19 13.44.44 2.44 2.64 4.68 4.37 6.74a75.73 75.73 0 0 0 5.87 5.68c0-.4.12-1.44.26-3.06h22.95l-6.88-3.13c1.26-3.15 2.4-6.25 3.78-9.25a3.15 3.15 0 0 1 2.25-1.39c3.85-.35 7.73-.49 11.54-.7 1.94 8.38-8.72 20.94-17.29 19.88l7.22 5.28c-1.46 2-2.47 4.4-4.24 5.75-3.17 2.42-3.22 4.9-1.47 8a3.13 3.13 0 0 1 .18 2.34c-1.43-1.95-2.79-4-4.31-5.85-4.7-5.78-9.9-10.79-18.11-10.47-1.48.06-3.29.1-4.34.91-3.84 2.95-6.84.49-10.2-.99z" fill="#fff"/><path d="m136.89 80q1 2.53 1.94 5.08l-.56.72-18.81-10.5c17.23-5.65 52.8 4.36 58.23 15.84-4.19 1.89-16.09 1.55-23.3-.78l4.68-2.7c-4.07.31-8.85 2-12.28.55-3.6-1.54-5.9-6.12-8.78-9.37z" fill="#fff"/><path d="m148.28 158.29c-3.54-7.14-7.09-14.28-10.78-21.7l-4.84 1.17c-.43 5.37-.85 10.59-1.27 15.81l-.65.1a64.29 64.29 0 0 1 -1.12-8.46c0-4.68-.82-8.55-6.36-9.41-.43-.07-.79-.57-1.16-.86 1.89-5.14 4.46-6.13 9.17-3.72 2.33 1.19 4.81 2.1 7.07 3.39a6.17 6.17 0 0 1 2.6 2.8c2.71 6.82 5.23 13.72 7.82 20.59z" fill="#fff"/><path d="m136.29 93.22 4.52 11.26c-3.81-2.97-5.01-6.8-4.52-11.26z" fill="#fff"/><g fill="#1d1d1b"><path d="m1.58 296.33c-1 0-1.58-.57-1.58-1.22 0-1.51 3.1-3.17 3.1-6.05v-39.82c0-2.88-3.1-4.53-3.1-6.05 0-.64.58-1.22 1.58-1.22h21.82c5.33 0 7.85 2.52 7.85 6.91v11c0 2.59-2.38 4.32-3.82 5.54 1.95 1.37 5.69 3.46 5.69 6.34v19c0 3.67-3.17 5.54-6.84 5.54zm11.17-46.44v15.34l7.63-4.75a2.57 2.57 0 0 0 1.22-1.88v-7.77c0-.8-.14-.94-1-.94zm9.72 38.52c.72 0 1-.28 1-1v-12.25c0-1-4.46-4.24-4.46-4.24l-5.47 3.67c-.58.43-.79.72-.79 1.22v12.6z"/><path d="m72.15 295.11a1.44 1.44 0 0 1 -1.52 1.22h-12.45c-1 0-1.66-.57-1.66-1.22 0-1.08 1.66-1.3 1.66-2.88 0-.79-5-13.68-5-13.68l-2.67 1.66c-.21.14-.29.35-.29.79v8.06c0 2.88 3.1 4.54 3.1 6.05 0 .65-.58 1.22-1.58 1.22h-12.74c-1 0-1.58-.57-1.58-1.22 0-1.51 3.1-3.17 3.1-6.05v-39.82c0-2.88-3.1-4.53-3.1-6.05 0-.64.58-1.22 1.58-1.22l21.82-.07c4.83 0 7.85 2.16 7.85 6.91v16.92c0 3.1-3.24 5-6.55 7.06 3 8.5 6 16.13 6.48 17.06 2.18 3.82 3.55 3.68 3.55 5.26zm-22-45.22v20.23l7.13-4.89c1.59-1.08 1.73-1.66 1.73-2.16v-12.24c0-.65-.29-.94-1-.94z"/><path d="m75.89 296.33c-1 0-1.59-.57-1.59-1.22 0-1.51 3.1-3.17 3.1-6.05v-39.82c0-2.88-3.1-4.53-3.1-6.05 0-.64.58-1.22 1.59-1.22h25.2c1.73 0 2.45.72 2.45 2.45v8.21c0 1.08-.22 1.44-.79 1.87-1.16.86-6.77 4.68-7.64 4.68a1.35 1.35 0 0 1 -1.22-1.37v-7.92h-5.89a.94.94 0 0 0 -.93.86v17.65l6.41-4a3.57 3.57 0 0 1 1.87-.72 1.41 1.41 0 0 1 1.37 1.52v6.62a2.38 2.38 0 0 1 -1.37 2.45l-8.28 5.25v8.07a.89.89 0 0 0 .93.86h5.91v-4.53c0-1.08.21-1.44.79-1.88 1.15-.86 6.77-4.68 7.63-4.68a1.35 1.35 0 0 1 1.23 1.37v15.2c0 1.72-.72 2.44-2.45 2.44z"/><path d="m147.82 274.23s5.11-24.41 5.11-25.71c0-2-2.3-3.81-2.3-5.33 0-.64.57-1.22 1.58-1.22h12.67c1 0 1.59.58 1.59 1.22 0 1.52-2.88 3.53-3.46 6.12l-8.86 40.62c-.28 1.36 2 3.81 2 5.18 0 .65-.58 1.22-1.58 1.22h-11.79c-1 0-1.59-.57-1.59-1.22 0-1.37 1.95-3.82 1.95-5.18l-6.7-24.63-6.7 24.63c0 1.36 1.95 3.81 1.95 5.18 0 .65-.58 1.22-1.59 1.22h-11.81c-1 0-1.58-.57-1.58-1.22 0-1.37 1.94-3.82 2-5.18l-8.86-40.62c-.58-2.59-3.46-4.6-3.46-6.12 0-.64.58-1.22 1.59-1.22h12.67c1 0 1.59.58 1.59 1.22 0 1.52-2.31 3.32-2.31 5.33 0 1.3 5.11 25.71 5.11 25.71l6.2-25.85c.28-1.3-1.95-3.82-1.95-5.19 0-.64.58-1.22 1.59-1.22h11.12c1 0 1.59.58 1.59 1.22 0 1.37-2.3 3.89-2 5.19z"/><path d="m214.85 290.5c0 2.74-2.74 5.83-7.13 5.83h-13.47c-3.88 0-6.84-1.94-6.84-5.54v-43.28c0-3.6 3-5.54 6.84-5.54h12.75c4.25 0 7.13 2.95 7.13 5.9v6.92c0 1.08-.22 1.44-.79 1.87-1.16.86-6.77 4.68-7.64 4.68a1.35 1.35 0 0 1 -1.22-1.37v-9.14a1 1 0 0 0 -.94-.94h-5.54a1 1 0 0 0 -.94.94v36.65a1 1 0 0 0 .94.93h6.26a1 1 0 0 0 .94-.93v-6c0-1.08.22-1.44.79-1.87 1.15-.87 6.77-4.68 7.63-4.68a1.34 1.34 0 0 1 1.23 1.37z"/><path d="m219.88 290.5v-42.7c0-3.81 3-5.83 6.85-5.83h14.18c4.32 0 7.13 3 7.13 6.19v42c0 2.95-2.74 6.19-7.13 6.19h-14.18c-3.89-.02-6.85-2.1-6.85-5.85zm10.12-2.09h7.85a.54.54 0 0 0 .5-.5v-37.52a.5.5 0 0 0 -.5-.5h-7.85a.5.5 0 0 0 -.51.5v37.52a.54.54 0 0 0 .51.5z"/><path d="m252.57 287.77c0-1.3.51-1.8 1.73-1.8h7.2c1.23 0 1.8.5 1.8 1.8v6.84c0 1.29-.57 1.8-1.8 1.8h-7.13c-1.22 0-1.8-.51-1.8-1.8z"/></g></svg>