<svg width="233" height="230" viewBox="0 0 233 230" fill="none" xmlns="http://www.w3.org/2000/svg">
<path d="M175 144C178.69 152.4 176 159.12 168 162.06C157.72 165.87 148.57 163.33 140.22 156.8C139.33 156.11 138.53 155.32 137.6 154.51C139.67 163.21 147.29 167.41 165.01 169.51C165.93 184.03 166.01 198.31 155.61 210.42C159.06 199.04 157.43 188.42 151.53 178.2C154.46 195.48 151.02 210.34 136.11 220.88C137.16 214.41 138.57 207.98 139.11 201.48C139.612 194.927 138.224 188.368 135.11 182.58C134.7 189.05 134.74 195.29 133.82 201.38C132.337 211.807 126.982 221.293 118.82 227.95C116.82 229.59 115.69 229.6 113.82 227.95C103.01 218.69 98.38 206.65 97.82 192.77C97.69 189.34 97.82 185.91 97.82 181.94C91.5 195.07 92.88 207.89 97.7 221.61C81.62 210.05 78.13 195.07 81.7 177.36C75.7 185.76 74.36 196.19 77.3 209.98C69.82 205.36 64.87 183.42 68.3 169.21C76.54 169.32 84.5 168.07 89.81 162C84.6 162.59 78.81 163.9 73.13 163.66C69.53 163.51 65.64 161.61 62.56 159.51C57.45 156.02 56.62 150.42 59.31 144.79C61.55 145.65 63.75 147.1 65.99 147.16C68.363 147.1 70.6669 146.349 72.62 145C76.68 142.29 77.81 136.65 75.92 131C74.07 125.54 70.07 121.86 65.1 119.55C58.87 116.67 52.36 114.38 45.93 111.94C36.2035 108.449 27.3209 102.95 19.86 95.8L28.17 92.11C11.59 85.65 2.55998 74 0.47998 57.44C7.76998 57.69 14.76 58.75 21.55 57.98C34.27 56.55 43.3 49 49.7 38.2C57 25.84 66 15 78.38 7.39999C84.48 3.62999 91 0.799988 98.25 0.0999878C98.87 3.21999 99.25 6.18999 100.06 9.09999C102.16 16.6 107.24 21.3 114.55 23.55C116.109 23.9437 117.75 23.8742 119.27 23.35C127.82 20.54 132.67 14.52 134.08 5.66999C134.35 3.95999 134.61 2.25999 134.96 0.0499878C150.16 7.22999 159.82 18.31 163.6 35.05L167.07 25.92C182.53 50.11 202.07 64.92 232.82 56.49C230.82 74.02 221.67 85.66 205.1 92.19L211.21 95.45C209.56 97.38 208.21 99.26 206.54 100.88C199.19 108 190 111.84 180.43 115.1C175.129 116.942 170.067 119.41 165.35 122.45C162.994 123.92 161.073 125.993 159.788 128.454C158.503 130.916 157.899 133.677 158.04 136.45C158.13 140.97 160.04 144.5 164.26 146.36C168.12 148.14 171.86 148 175 144ZM90.55 13.24C86.1 16.01 81.73 18.24 77.94 21.24C74.2126 24.3835 70.7044 27.778 67.44 31.4C63.83 35.15 62.44 39.94 61.33 44.9C60.33 49.48 59 53.99 57.82 58.53L57.26 58.39L56.1 50.52L55.1 50.21L43.36 66.8L41.28 64.28L19.6 68.46L39.81 77.53L33.14 79.07C40.71 80.6 48.26 81.69 55.84 82.47C58.29 82.72 59.09 83.58 58.95 85.94C58.79 88.6 58.95 91.27 58.95 93.94C60.2318 92.6232 61.3012 91.1152 62.12 89.47C64.93 84.94 67.12 79.68 70.83 76.12C80 67.44 91.62 64 104 62.92C104.967 62.6632 105.885 62.2512 106.72 61.7C105.82 61.11 104.91 60.02 104 60.02C98.8721 59.8427 93.7381 59.9964 88.63 60.48C82.19 61.29 75.83 62.82 68.63 64.2C80.2462 57.9924 93.1898 54.6819 106.36 54.55C108.13 49.08 103.76 46.55 101.69 42.78L66.87 59L66.58 58.48L99.72 36.11L99.3 35.11H87.73V34.58L106.22 30.02C98.49 26.31 93.83 20.8 90.55 13.24ZM110.64 119.32C113.98 120.8 116.99 123.26 120.84 120.32C121.84 119.51 123.7 119.47 125.18 119.41C133.39 119.09 138.59 124.1 143.29 129.88C144.81 131.76 146.17 133.78 147.6 135.73C147.846 134.956 147.781 134.117 147.42 133.39C145.67 130.28 145.72 127.8 148.89 125.39C150.66 124.04 151.67 121.68 153.13 119.64L145.91 114.36C154.48 115.42 165.14 102.86 163.2 94.48C159.39 94.69 155.51 94.83 151.66 95.18C151.207 95.2347 150.771 95.3874 150.382 95.6274C149.994 95.8674 149.662 96.189 149.41 96.57C148.03 99.57 146.89 102.67 145.63 105.82L152.51 108.95H129.56C129.42 110.57 129.33 111.61 129.3 112.01C127.257 110.229 125.311 108.34 123.47 106.35C121.74 104.29 119.54 102.05 119.1 99.61C118.38 95.61 118.91 91.3 118.91 86.17L101.3 79L103.81 78C103.81 77.52 103.81 77 103.81 76.57C101.55 76.39 99 75.44 97.09 76.17C90.2177 78.7851 83.5001 81.79 76.97 85.17C74.91 86.24 73.27 88.89 72.32 91.17C70.16 96.37 71.39 101.44 74.95 105.57C78.51 109.7 81.62 115.4 89.22 114.33L81.98 119.55C86.57 123.9 89.08 128.55 86.54 134.63C87.6647 133.511 88.6701 132.277 89.54 130.95C92.96 126.15 97.02 121.74 102.82 120.42C107.14 119.42 108.38 116.94 109.12 113.42C109.91 109.67 111.12 105.87 108.05 102.42L102 105.17L103.53 102.17C97.78 100.04 90.99 101.89 86.35 96.4C91.35 91.72 96.43 92.61 101.77 95.07C97.34 90.49 92.91 86.33 85.54 87.59C91.33 83.37 96.59 83.59 103.04 87.77C115.36 95.84 114.19 107.22 110.64 119.32ZM121.89 80L123 78.84C125.88 82.09 128.18 86.67 131.78 88.21C135.21 89.68 139.99 87.97 144.06 87.66L139.38 90.36C146.59 92.69 158.49 93.03 162.68 91.14C157.25 79.66 121.68 69.65 104.45 75.3L123.26 85.82L123.82 85.1C123.18 83.4 122.537 81.7 121.89 80ZM133.28 158.27L133.76 157.98C131.17 151.11 128.65 144.21 125.94 137.39C125.391 136.205 124.481 135.225 123.34 134.59C121.08 133.3 118.6 132.39 116.27 131.2C111.56 128.79 108.99 129.78 107.1 134.92C107.47 135.21 107.83 135.71 108.26 135.78C113.8 136.64 114.58 140.51 114.62 145.19C114.806 148.032 115.18 150.858 115.74 153.65L116.39 153.55C116.81 148.33 117.23 143.11 117.66 137.74L122.5 136.57C126.19 144 129.74 151.15 133.28 158.29V158.27ZM121.28 93.2C120.79 97.66 121.96 101.49 125.8 104.46L121.28 93.2Z" fill="white"/>
</svg>
